<svg width="51" height="48" viewBox="0 0 51 48" fill="none" xmlns="http://www.w3.org/2000/svg"><g clip-path="url(#clip0)"><path d="M35.637 0h-20.52C6.757 0 .048 6.356.048 14.278v19.444C.048 41.644 6.756 48 15.117 48h20.52c8.36 0 15.069-6.356 15.069-14.278V14.278c0-7.8-6.71-14.278-15.07-14.278zM45.64 33.722c0 5.278-4.433 9.478-10.003 9.478h-20.52c-5.57 0-10.003-4.2-10.003-9.478V14.278C5.114 9 9.547 4.8 15.117 4.8h20.52c5.57 0 10.003 4.2 10.003 9.478v19.444zM25.377 11.644c-7.223 0-13.04 5.522-13.04 12.356s5.817 12.356 13.04 12.356c7.223 0 13.04-5.522 13.04-12.356S32.6 11.644 25.377 11.644zm0 20.034c-4.433 0-7.975-3.356-7.975-7.556s3.542-7.556 7.975-7.556c4.432 0 7.975 3.356 7.975 7.556 0 4.078-3.543 7.556-7.975 7.556zM38.546 8.756c1.751 0 3.166 1.34 3.166 3s-1.415 3-3.166 3-3.166-1.34-3.166-3 1.415-3 3.166-3z" fill="url(#paint0_linear)"/></g><defs><linearGradient id="paint0_linear" x1="25.377" y1="48" x2="25.377" y2="0" gradientUnits="userSpaceOnUse"><stop stop-color="#E09B3D"/><stop offset=".3" stop-color="#C74C4D"/><stop offset=".6" stop-color="#C21975"/><stop offset="1" stop-color="#7024C4"/></linearGradient><clipPath id="clip0"><path fill="#fff" transform="translate(.048)" d="M0 0h50.657v48H0z"/></clipPath></defs></svg>