<svg width="140" height="118" viewBox="0 0 140 118" fill="none" xmlns="http://www.w3.org/2000/svg"><path d="M100.749 107.698l25.5-22.5-30.5-3.499L72 78.917l-34.751 20.78 63.5 8.001z" fill="#E61BF0"/><path d="M33 44v26.444L61 102l27-31.556V44M47.5 64.5V23M73 64.5V23M61 59V2m9 88.5c-3.5-5-15-5-18.5 0" stroke="#000" stroke-linecap="round"/><path d="M88 64c-1.5 6.5-11.5 7.5-15 0-4.5 9.5-22 9-25.5 0-2 7-14 6-14.5 0" stroke="#000" stroke-linecap="round"/><path d="M48 87.002L15 105l63.5 8L104 90.5l-30.5-3.498" stroke="#000"/></svg>