<svg width="141" height="119" viewBox="0 0 141 119" fill="none" xmlns="http://www.w3.org/2000/svg"><path d="M137.536 40.54c0 21.52-18.667 30.238-18.667 30.238l10.134 23.563-28.8-16.55s-7.001.948-10.667.948c-26.51 0-48-17.103-48-38.2 0-21.096 21.49-38.198 48-38.198s48 16.678 48 38.199z" fill="#E61BF0"/><path d="M91.783 86.027l-.146-.084-.168.023.067.495-.067-.495h0-.004l-.014.002-.055.007a88.154 88.154 0 01-1 .127c-.667.083-1.592.192-2.624.302-2.07.22-4.547.437-6.236.437-24.694 0-44.5-15.774-44.5-35s19.806-35 44.5-35c24.697 0 44.5 15.383 44.5 35 0 9.839-4.3 16.746-8.61 21.203a34.831 34.831 0 01-5.929 4.902c-.808.528-1.48.916-1.948 1.17a17.21 17.21 0 01-.68.353l-.034.016-.008.003-.001.001v0l-.443.205.194.448 8.903 20.522-25.697-14.637z" stroke="#000"/><path d="M49.536 27.359c-24.987.593-45 15.966-45 35.69 0 20.116 18.083 28.266 18.083 28.266l-9.816 22.026 27.9-15.47s6.781.885 10.333.885c13.956 0 26.477-4.721 35-12.198" stroke="#000"/><path d="M51.036 37.84h30m-30 9h30m-30 8h61m-61 8h61" stroke="#C9C9C9" stroke-linecap="round"/></svg>