<svg width="141" height="119" viewBox="0 0 141 119" fill="none" xmlns="http://www.w3.org/2000/svg"><path d="M137.536 17.34h-112v31.184L76.15 65.728l5.385 1.613 5.385-1.613 50.615-17.204V17.34z" fill="#E61BF0"/><path d="M75.92 81.34l50.616-17.066V33.341h-112v30.933L65.15 81.341" stroke="#000" stroke-linecap="round" stroke-linejoin="round"/><path d="M124.536 65.34v38.001h-108v-38m87-32.001v-12a2 2 0 00-2-2h-63a2 2 0 00-2 2v12" stroke="#000" stroke-linecap="round" stroke-linejoin="round"/><path d="M73.536 74.34h-7a2 2 0 00-2 2v11a2 2 0 002 2h7a2 2 0 002-2v-11a2 2 0 00-2-2z" stroke="#000" stroke-linecap="round" stroke-linejoin="round"/></svg>