<svg width="66" height="40" viewBox="0 0 66 40" fill="none" xmlns="http://www.w3.org/2000/svg"><path d="M63.394 39.97h-9.381c-2.465.192-4.376-.798-6.011-2.695-1.27-1.499-2.465-2.984-3.735-4.483-.54-.59-1.094-1.196-1.735-1.594-1.27-.894-2.364-.592-3.094.797-.729 1.499-.905 3.094-1.006 4.785-.088 2.392-.729 3.093-3.005 3.19-4.74.192-9.205-.495-13.392-3.19-3.647-2.296-6.565-5.582-9.017-9.267C8.177 20.335 4.442 12.47 1.16 4.303.43 2.517.984 1.514 2.795 1.417a147.14 147.14 0 019.205 0c1.27 0 2.1.798 2.552 2.09 1.635 4.482 3.647 8.662 6.2 12.65.641.99 1.37 2.09 2.364 2.79 1.094.798 1.911.496 2.465-.797.364-.797.452-1.787.54-2.695.277-3.093.277-6.173-.176-9.267-.276-1.897-1.27-3.19-3.005-3.492-.905-.193-.73-.591-.365-1.1C23.305.605 24.034 0 25.493 0h10.563c1.634.399 2 1.196 2.276 2.984v12.855c0 .702.364 2.792 1.458 3.286.906.303 1.547-.494 2.1-1.1 2.553-2.983 4.377-6.475 6.011-10.064a43.452 43.452 0 001.912-4.881c.452-1.196 1.182-1.788 2.364-1.788h10.21c.277 0 .642 0 .906.097 1.735.302 2.188 1.1 1.635 2.983-.817 2.888-2.465 5.28-4.1 7.673-1.735 2.585-3.558 5.087-5.193 7.672-1.37 2.392-1.27 3.588.641 5.678 2.1 2.297 4.376 4.386 6.288 6.971.817 1.1 1.634 2.297 2.276 3.589.918 1.815.1 3.905-1.446 4.015z" fill="#436EAB"/></svg>